<?xml version="1.0" encoding="utf-8"?>
<!-- Generator: Adobe Illustrator 25.0.1, SVG Export Plug-In . SVG Version: 6.00 Build 0)  -->
<svg version="1.1" id="圖層_1" xmlns="http://www.w3.org/2000/svg" xmlns:xlink="http://www.w3.org/1999/xlink" x="0px" y="0px"
	 viewBox="0 0 340.2 85" style="enable-background:new 0 0 340.2 85;" xml:space="preserve">
<style type="text/css">
	.st0{clip-path:url(#SVGID_2_);}
	.st1{clip-path:url(#SVGID_4_);fill:#E0C43B;}
	.st2{clip-path:url(#SVGID_4_);}
	.st3{fill:none;}
</style>
<g id="圖稿_4_1_">
	<g>
		<defs>
			<rect id="SVGID_1_" x="15.2" y="19.6" width="309.8" height="45.9"/>
		</defs>
		<clipPath id="SVGID_2_">
			<use xlink:href="#SVGID_1_"  style="overflow:visible;"/>
		</clipPath>
		<g class="st0">
			<defs>
				<rect id="SVGID_3_" x="15.2" y="19.6" width="309.8" height="45.9"/>
			</defs>
			<clipPath id="SVGID_4_">
				<use xlink:href="#SVGID_3_"  style="overflow:visible;"/>
			</clipPath>
			<path class="st1" d="M15.2,52.9c-0.4-2.4,111.7-29.7,190.9-14.1c8.8,1.7,28.3,6.2,55.4,6.3c37.6,0.2,62.3-8,63.4-5.6
				c1.1,2.6-26.5,15.4-60.7,21.8c-8.8,1.6-40.7,7.1-83.6,2.1c-21.5-2.5-27.9-5.6-46.6-9.1C67.7,41.6,15.5,54.5,15.2,52.9"/>
			<path class="st2" d="M43.7,50.2l0.9-12l0.4-8.8l0.1-3.9c0-1.1,0-2.2,0-3.3l0-2.1c2.3,0,4,0,5.2,0c0.9,0,2.5,0,4.7,0
				c-0.3,4.2-0.6,7.9-0.7,11.2h12c0.1-1.2,0.1-2.8,0.2-4.9c0.1-2.1,0.1-3.5,0.1-4.2c0-0.4,0-1.1,0-2.1l5.2,0c0.5,0,2.1,0,4.6,0
				c-0.5,7.6-0.9,13.2-1,16.9c-0.1,3.7-0.2,8.1-0.2,13.2l-4.8,0c-0.7,0-2.4,0-5.2,0c0.4-3.5,0.6-7.6,0.8-12.2h-12l-0.4,12.2l-5.1,0
				C47.7,50.2,46.2,50.2,43.7,50.2"/>
			<path class="st2" d="M80.1,50.2c0.2-1.8,0.4-3.3,0.5-4.4c0.1-1.2,0.2-2.6,0.3-4.5c0.1-1.8,0.2-3.8,0.3-6c0.1-2.2,0.1-4.7,0.2-7.6
				c1.9,0,3.4,0,4.6,0c1,0,2.5,0,4.5,0c-0.3,2.8-0.4,5.2-0.5,7.3c-0.1,2.1-0.2,4.3-0.2,6.7c-0.1,4.2-0.1,7-0.1,8.5
				c-1.7,0-3.3,0-4.5,0C83.8,50.2,82.1,50.2,80.1,50.2 M81.5,24.9c0.1-1.8,0.1-3.1,0.1-4.1c0-0.3,0-0.7,0-1.2c1.8,0,3.3,0,4.5,0
				c1.7,0,3.1,0,4.4,0c0,0.5-0.1,0.8-0.1,1.1l-0.1,2.7c0,0.4,0,0.9,0,1.5c-1.5,0-2.9,0-4.2,0C84.6,24.9,83.1,24.9,81.5,24.9"/>
			<path class="st2" d="M96.1,53c1.9,0.6,3.6,1.1,5,1.4c1.4,0.3,2.7,0.4,3.8,0.4c0.8,0,1.5-0.1,2.1-0.3c0.6-0.2,1.1-0.4,1.5-0.6
				c0.4-0.3,0.7-0.6,1-0.9c0.3-0.4,0.5-0.8,0.6-1.3c0.1-0.5,0.2-1,0.3-1.6c0.1-0.6,0.1-1.5,0.2-2.6c-0.6,0.5-1.1,0.9-1.5,1.2
				c-0.4,0.3-0.9,0.6-1.6,0.9c-0.6,0.3-1.3,0.5-2,0.7c-0.7,0.2-1.5,0.2-2.3,0.2c-1.9,0-3.5-0.4-5-1.3c-1.5-0.9-2.6-2.1-3.4-3.6
				c-0.7-1.6-1.1-3.2-1.1-5c0-2.1,0.4-4.1,1.2-5.8c0.8-1.7,1.9-3.2,3.4-4.4c1.5-1.2,3.1-2,4.9-2.5c1.8-0.5,3.8-0.7,6-0.7
				c1.3,0,2.7,0.1,4.4,0.2s3.9,0.5,6.7,1l-0.5,7.3l-0.5,8c0,0.6,0,1,0,1.4l-0.2,7.2c0,0.9-0.1,1.8-0.3,2.6c-0.2,0.7-0.4,1.4-0.8,2.1
				c-0.4,0.6-0.9,1.2-1.4,1.7c-0.6,0.5-1.3,0.9-2.1,1.3c-0.8,0.3-1.7,0.6-2.8,0.8c-1.1,0.2-2.3,0.3-3.6,0.3c-0.7,0-1.6,0-2.6-0.1
				c-1-0.1-2.1-0.2-3.2-0.3c-1.1-0.1-2-0.3-2.8-0.4c-0.8-0.1-1.8-0.4-3-0.6l-0.2-2.9C96.3,56,96.2,54.8,96.1,53 M111.2,33.9
				c-0.9-0.2-1.7-0.3-2.4-0.3c-1.3,0-2.5,0.3-3.4,0.8c-1,0.5-1.7,1.3-2.2,2.3c-0.5,1-0.8,2.1-0.8,3.1c0,0.8,0.1,1.5,0.4,2.2
				c0.3,0.7,0.7,1.2,1.4,1.6c0.6,0.4,1.3,0.6,2,0.6c1.1,0,2-0.4,2.8-1.1c0.8-0.8,1.4-1.8,1.7-3.1C111,38.6,111.2,36.6,111.2,33.9"/>
			<path class="st2" d="M124,50.2c0.2-2.2,0.4-4,0.5-5.4c0.2-3,0.4-6.4,0.6-10.3c0.1-2.6,0.2-5.1,0.3-7.5c0.1-2.4,0.1-4.7,0.1-6.9
				c1.9,0,3.4,0,4.6,0c1.6,0,3.1,0,4.5,0l-0.5,5.3c-0.1,0.9-0.2,2.7-0.3,5.4c0.5-0.6,0.9-1.1,1.2-1.4c0.3-0.3,0.7-0.6,1-0.8
				c0.4-0.3,0.8-0.5,1.1-0.6c0.4-0.2,0.8-0.3,1.3-0.5c0.5-0.1,1.1-0.2,1.7-0.3c0.6-0.1,1.2-0.1,1.9-0.1c1.2,0,2.5,0.1,3.6,0.4
				s2.2,0.8,3,1.5c0.8,0.7,1.4,1.5,1.7,2.3c0.3,0.9,0.4,1.8,0.4,2.8c0,0.4,0,0.9,0,1.6c0,0.7-0.1,1.5-0.1,2.5l-0.5,7.4
				c-0.1,0.9-0.1,1.7-0.1,2.3c0,0.6,0,1.4,0,2.3c-1.5,0-3,0-4.4,0c-1.6,0-3.2,0-4.8,0c0.2-2,0.5-4.2,0.7-6.8
				c0.2-2.5,0.3-4.5,0.3-5.7c0-1.4-0.3-2.4-0.9-2.9c-0.6-0.6-1.4-0.8-2.3-0.8c-0.9,0-1.6,0.2-2.3,0.5c-0.6,0.3-1.1,0.8-1.5,1.4
				c-0.4,0.5-0.7,1.3-0.9,2.4c-0.3,1.3-0.5,3.1-0.7,5.5c-0.1,1.4-0.2,3.5-0.3,6.3c-1.5,0-2.9,0-4.2,0
				C127.4,50.2,125.8,50.2,124,50.2"/>
			<path class="st2" d="M154.8,50.2l0.4-4.7L156,29l0.2-8.9c2,0,3.6,0,4.6,0c1.3,0,2.8,0,4.4,0l-0.5,6.8L164,43.6l-0.2,6.7
				c-1.6,0-3,0-4.3,0L154.8,50.2z"/>
			<path class="st2" d="M168.7,50.2c0.2-1.8,0.4-3.3,0.5-4.4c0.1-1.2,0.2-2.6,0.3-4.5c0.1-1.8,0.2-3.8,0.3-6
				c0.1-2.2,0.1-4.7,0.2-7.6c1.9,0,3.4,0,4.6,0c1,0,2.5,0,4.5,0c-0.3,2.8-0.4,5.2-0.5,7.3c-0.1,2.1-0.2,4.3-0.2,6.7
				c-0.1,4.2-0.1,7-0.1,8.5c-1.7,0-3.3,0-4.5,0C172.4,50.2,170.7,50.2,168.7,50.2 M170.1,24.9c0.1-1.8,0.1-3.1,0.1-4.1
				c0-0.3,0-0.7,0-1.2c1.8,0,3.3,0,4.5,0c1.7,0,3.1,0,4.4,0c0,0.5-0.1,0.8-0.1,1.1l-0.1,2.7c0,0.4,0,0.9,0,1.5c-1.5,0-2.9,0-4.2,0
				C173.2,24.9,171.7,24.9,170.1,24.9"/>
			<path class="st2" d="M184.7,53c1.9,0.6,3.6,1.1,5,1.4c1.4,0.3,2.7,0.4,3.8,0.4c0.8,0,1.5-0.1,2.1-0.3c0.6-0.2,1.1-0.4,1.5-0.6
				c0.4-0.3,0.7-0.6,1-0.9s0.5-0.8,0.6-1.3c0.1-0.5,0.3-1,0.3-1.6c0.1-0.6,0.1-1.5,0.2-2.6c-0.6,0.5-1.1,0.9-1.5,1.2
				c-0.4,0.3-0.9,0.6-1.6,0.9c-0.6,0.3-1.3,0.5-2,0.7c-0.7,0.2-1.5,0.2-2.3,0.2c-1.9,0-3.6-0.4-5-1.3c-1.5-0.9-2.6-2.1-3.4-3.6
				c-0.7-1.6-1.1-3.2-1.1-5c0-2.1,0.4-4.1,1.2-5.8c0.8-1.7,1.9-3.2,3.4-4.4c1.5-1.2,3.1-2,4.9-2.5c1.8-0.5,3.8-0.7,6-0.7
				c1.3,0,2.7,0.1,4.4,0.2c1.6,0.2,3.9,0.5,6.7,1l-0.5,7.3l-0.5,8c0,0.6,0,1,0,1.4l-0.2,7.2c0,0.9-0.1,1.8-0.3,2.6
				c-0.2,0.7-0.4,1.4-0.8,2.1c-0.4,0.6-0.9,1.2-1.4,1.7c-0.6,0.5-1.3,0.9-2.1,1.3c-0.8,0.3-1.7,0.6-2.8,0.8
				c-1.1,0.2-2.3,0.3-3.6,0.3c-0.7,0-1.6,0-2.6-0.1c-1-0.1-2.1-0.2-3.2-0.3c-1.1-0.1-2-0.3-2.8-0.4c-0.8-0.1-1.8-0.4-3-0.6l-0.2-2.9
				C184.9,56,184.8,54.8,184.7,53 M199.8,33.9c-0.9-0.2-1.7-0.3-2.4-0.3c-1.3,0-2.5,0.3-3.4,0.8s-1.7,1.3-2.2,2.3
				c-0.5,1-0.8,2.1-0.8,3.1c0,0.8,0.1,1.5,0.4,2.2c0.3,0.7,0.7,1.2,1.4,1.6c0.6,0.4,1.3,0.6,2,0.6c1.1,0,2-0.4,2.8-1.1
				c0.8-0.8,1.4-1.8,1.7-3.1C199.6,38.6,199.8,36.6,199.8,33.9"/>
			<path class="st2" d="M212.5,50.2c0.2-2.2,0.4-4,0.5-5.4c0.2-3,0.4-6.4,0.6-10.3c0.1-2.6,0.2-5.1,0.3-7.5c0.1-2.4,0.1-4.7,0.1-6.9
				c1.9,0,3.4,0,4.6,0c1.6,0,3.1,0,4.5,0l-0.5,5.3c-0.1,0.9-0.2,2.7-0.3,5.4c0.5-0.6,0.9-1.1,1.2-1.4c0.3-0.3,0.6-0.6,1-0.8
				c0.4-0.3,0.8-0.5,1.1-0.6c0.4-0.2,0.8-0.3,1.3-0.5c0.5-0.1,1.1-0.2,1.7-0.3c0.6-0.1,1.2-0.1,1.9-0.1c1.2,0,2.5,0.1,3.6,0.4
				c1.2,0.3,2.2,0.8,3,1.5c0.8,0.7,1.4,1.5,1.7,2.3c0.3,0.9,0.4,1.8,0.4,2.8c0,0.4,0,0.9,0,1.6c0,0.7-0.1,1.5-0.1,2.5l-0.5,7.4
				c-0.1,0.9-0.1,1.7-0.1,2.3c0,0.6,0,1.4,0,2.3c-1.5,0-3,0-4.4,0c-1.6,0-3.2,0-4.8,0c0.2-2,0.5-4.2,0.7-6.8
				c0.2-2.5,0.3-4.5,0.3-5.7c0-1.4-0.3-2.4-0.9-2.9c-0.6-0.6-1.4-0.8-2.3-0.8c-0.9,0-1.6,0.2-2.3,0.5c-0.6,0.3-1.1,0.8-1.5,1.4
				c-0.4,0.5-0.7,1.3-0.9,2.4c-0.3,1.3-0.5,3.1-0.7,5.5c-0.1,1.4-0.2,3.5-0.3,6.3c-1.5,0-2.9,0-4.2,0
				C216,50.2,214.4,50.2,212.5,50.2"/>
			<path class="st2" d="M259.8,43.7c-0.3,1.2-0.5,2.4-0.7,3.6l-0.5,2.7c-1.5,0.3-2.6,0.5-3.4,0.6c-0.8,0.1-1.6,0.1-2.4,0.1
				c-1.3,0-2.4-0.1-3.3-0.3c-1-0.2-1.8-0.6-2.4-1.2c-0.6-0.6-1.1-1.2-1.3-2c-0.2-0.7-0.4-1.5-0.4-2.3c0-0.1,0-0.4,0-0.8
				c0-0.4,0.1-1.2,0.2-2.5l0.5-7.6h-3.4c0.1-1,0.1-2.4,0.2-4l0.1-2.1h3.7c0.1-0.7,0.2-2.2,0.3-4.4l3.8-0.8c0.7-0.1,2.2-0.5,4.4-1
				c-0.1,1.9-0.2,4-0.2,6.2h5c-0.1,3.1-0.2,5.1-0.2,6.1h-5.1l-0.3,5.5c0,0.8,0,1.4,0,1.6c0,0.7,0.1,1.3,0.2,1.8
				c0.2,0.5,0.4,0.8,0.8,1c0.4,0.2,0.8,0.3,1.3,0.3c0.4,0,0.7,0,1.1-0.1C258.2,44.2,258.8,44,259.8,43.7"/>
			<path class="st2" d="M284.5,43.6c-0.2,0.9-0.6,3-1.1,6.4c-1.7,0.3-3.1,0.6-4.3,0.7c-1.2,0.1-2.3,0.2-3.5,0.2
				c-1.7,0-3.4-0.1-4.8-0.4c-1.5-0.2-2.7-0.7-3.8-1.3c-1.1-0.6-2-1.4-2.7-2.3c-0.7-0.9-1.3-2-1.6-3.3S262,41,262,39.7
				c0-1.9,0.4-3.7,1.1-5.5s1.7-3.2,2.9-4.2c1.2-1,2.5-1.7,4.1-2.2c1.5-0.4,3.1-0.6,4.7-0.6c1.7,0,3.3,0.2,4.8,0.6
				c1.5,0.4,2.8,1.1,3.9,2c1.1,1,1.8,2.1,2.3,3.3c0.4,1.2,0.7,2.5,0.7,3.9c0,0.8-0.1,1.8-0.3,2.8l-15.5,0c0,0.2,0,0.4,0,0.6
				c0,1.6,0.6,2.7,1.7,3.5c1.1,0.7,2.5,1.1,4.1,1.1c1,0,2.1-0.1,3.3-0.3C281.1,44.5,282.6,44.1,284.5,43.6 M270.9,36.5h7.3
				c0-0.3,0-0.5,0-0.6c0-0.8-0.1-1.4-0.4-2c-0.3-0.5-0.7-0.9-1.2-1.2c-0.5-0.3-1.1-0.4-1.7-0.4c-0.4,0-0.9,0.1-1.3,0.2
				c-0.4,0.1-0.8,0.3-1.1,0.6c-0.3,0.3-0.6,0.6-0.8,0.9c-0.2,0.4-0.4,0.7-0.5,1C271.1,35.4,271,35.9,270.9,36.5"/>
			<path class="st2" d="M289.3,50.2l0.7-9.8l0.2-5.6c0-1,0-2,0-3.1c0-1.1,0-2.4,0-4c1.8,0,3.2,0,4.2,0c1.2,0,2.6,0,4.2,0l-0.1,2.5
				c0.6-0.6,1-1.1,1.4-1.4c0.4-0.3,0.8-0.6,1.3-0.9c0.5-0.3,1-0.4,1.5-0.6c0.5-0.1,1.1-0.2,1.6-0.2c0.5,0,1.1,0.1,1.8,0.2
				c0,1.6,0.1,2.9,0.1,4l0.2,3.4c-0.8-0.2-1.6-0.4-2.3-0.4c-0.9,0-1.6,0.1-2.3,0.4c-0.6,0.3-1.2,0.6-1.7,1.2c-0.5,0.5-0.9,1.2-1.2,2
				s-0.5,2-0.6,3.7c-0.1,1.7-0.2,3.6-0.2,5.8c0,0.8,0,1.7,0.1,2.8c-1.4,0-2.9,0-4.3,0C292.5,50.2,291,50.2,289.3,50.2"/>
		</g>
	</g>
</g>
<rect y="-1.1" class="st3" width="340.2" height="87.1"/>
</svg>
