<?xml version="1.0" encoding="utf-8"?>
<!-- Generator: Adobe Illustrator 25.0.1, SVG Export Plug-In . SVG Version: 6.00 Build 0)  -->
<svg version="1.1" id="圖層_1" xmlns="http://www.w3.org/2000/svg" xmlns:xlink="http://www.w3.org/1999/xlink" x="0px" y="0px"
	 viewBox="0 0 425.2 85" style="enable-background:new 0 0 425.2 85;" xml:space="preserve">
<style type="text/css">
	.st0{fill:none;}
	.st1{fill:#E0C43B;}
</style>
<rect x="42.5" y="-1.1" class="st0" width="340.2" height="87.1"/>
<path class="st1" d="M6.3,56.1c-0.4-2.9,98.5-50.2,196.1-31.4c11.8,2.3,64.2,16.4,106.1,16.7c62.1,0.4,100.3,0.5,103.8,3
	c4.2,3-70.3,18.1-135.4,18.1c-30.5,0-107.8-11.4-131.4-13.5C74.1,43,6.6,58.1,6.3,56.1z"/>
<g>
	<path d="M31.4,48.8l-0.9-2.8l-5.7-16.4l-4.5-12.6c2.1,0,4,0,5.6,0c1,0,2.6,0,4.8,0c0.4,1.4,0.6,2.4,0.8,3.2
		c0.3,0.9,0.8,2.6,1.6,5.1l3.4,11c0.3,1.2,0.8,2.7,1.3,4.5L39,38l8.1-17.8c0.1-0.3,0.3-0.7,0.5-1.1c0.2-0.4,0.5-1.1,0.9-2.1
		c2.3,0,4.1,0,5.4,0c0.9,0,2.6,0,5.1,0c-1.6,3-3.4,6.4-5.4,10.4l-8,16c-0.8,1.6-1.6,3.4-2.6,5.5c-2.6,0-4.5,0-5.6,0
		C36.3,48.7,34.3,48.8,31.4,48.8z"/>
	<path d="M72.5,24.4c1.9,0,3.8,0.3,5.6,0.9c1.8,0.6,3.3,1.4,4.5,2.6c1.2,1.1,2.1,2.4,2.7,3.9c0.6,1.5,0.9,3.1,0.9,4.8
		c0,1.7-0.3,3.2-0.8,4.7s-1.4,2.9-2.6,4.2c-1.2,1.3-2.8,2.3-4.7,3c-1.9,0.7-4,1-6.1,1c-2,0-3.9-0.3-5.7-0.9
		c-1.8-0.6-3.3-1.4-4.6-2.5c-1.2-1.1-2.1-2.4-2.8-4c-0.6-1.5-0.9-3.2-0.9-4.9c0-1.7,0.3-3.3,0.9-4.9c0.6-1.5,1.5-2.9,2.8-4.2
		c1.3-1.2,2.9-2.2,4.8-2.8C68.5,24.7,70.5,24.4,72.5,24.4z M72.4,31.2c-1,0-1.9,0.3-2.7,0.8c-0.8,0.5-1.4,1.3-1.8,2.3
		s-0.6,2.1-0.6,3.2c0,1.7,0.4,3,1.3,3.9c0.9,0.9,1.9,1.4,3.2,1.4c1,0,1.9-0.3,2.6-0.8c0.8-0.5,1.4-1.3,1.8-2.3
		c0.4-1,0.6-2.1,0.6-3.3c0-1-0.2-1.8-0.5-2.6c-0.3-0.8-0.8-1.4-1.5-1.9C74.2,31.5,73.3,31.2,72.4,31.2z"/>
	<path d="M109.5,41.3c-0.1,0.6-0.3,1.8-0.6,3.4l-0.6,3.7c-2.4,0.6-4.8,0.9-7.2,0.9c-1.7,0-3.2-0.2-4.5-0.5c-1.5-0.4-2.9-1.1-4.1-2.1
		c-1.2-1.1-2.1-2.3-2.7-3.8c-0.7-1.7-1-3.6-1-5.7c0-1.9,0.3-3.8,1-5.6c0.7-1.8,1.6-3.3,2.9-4.4c1.3-1.2,2.7-1.9,4.2-2.3
		s3.3-0.6,5.2-0.6c1.1,0,2.2,0.1,3.3,0.2c1.1,0.1,2.5,0.4,4.2,0.8l0,0.5c0,0.6,0.1,1.1,0.1,1.7c0,0.6,0.1,1.5,0.2,2.8l0.1,2.1
		c-2.2-0.8-4.2-1.2-5.9-1.2c-1.2,0-2.3,0.2-3.2,0.7c-0.9,0.5-1.6,1.2-2.1,2.1c-0.4,0.9-0.7,1.9-0.7,3.1c0,1.2,0.2,2.2,0.6,3
		c0.4,0.8,1,1.4,1.9,1.8c0.9,0.4,1.8,0.6,2.9,0.6c0.5,0,1.2-0.1,1.9-0.2c0.7-0.1,1.4-0.2,1.9-0.4C108,41.9,108.7,41.7,109.5,41.3z"
		/>
	<path d="M116,31.8c0.3-1.5,0.5-2.6,0.6-3.2c0.1-0.6,0.2-1.5,0.4-2.7c4.5-1,8.3-1.5,11.5-1.5c1.8,0,3.5,0.2,5,0.6s2.7,1.1,3.6,2
		c0.9,0.9,1.3,2.2,1.3,3.9c0,0.9-0.1,2.8-0.3,5.9c-0.2,3-0.4,7-0.5,12c-1.5,0-3,0-4.6,0c-1.5,0-3,0-4.7,0c0.2-1.7,0.4-5.2,0.7-10.6
		c-0.6,0.3-1.1,0.5-1.4,0.6c-0.3,0.1-0.9,0.3-1.8,0.6c-0.8,0.2-1.5,0.5-2,0.6s-0.9,0.4-1.2,0.7s-0.6,0.5-0.7,0.8s-0.2,0.6-0.2,0.9
		c0,0.5,0.2,1,0.6,1.4s1.1,0.6,2,0.6c0.3,0,0.7,0,1-0.1c0.4-0.1,0.9-0.2,1.5-0.4c-0.5,1.2-1,2.9-1.6,5.2c-1.3,0.2-2.6,0.3-3.8,0.3
		c-1.9,0-3.5-0.3-4.8-0.8s-2.3-1.4-3-2.6c-0.7-1.2-1-2.4-1-3.6c0-0.7,0.1-1.4,0.4-2.1c0.3-0.7,0.7-1.4,1.2-2.1
		c0.5-0.7,1.2-1.2,1.9-1.7c0.7-0.5,1.7-0.9,3-1.3s2.9-0.8,4.8-1.2c0.8-0.2,1.6-0.3,2.2-0.5c0.7-0.2,1.2-0.3,1.4-0.5s0.5-0.3,0.7-0.5
		c0.2-0.2,0.3-0.4,0.4-0.6c0.1-0.2,0.1-0.4,0.1-0.6c0-0.6-0.2-1-0.7-1.4c-0.5-0.3-1.2-0.5-2.2-0.5C123.3,29.5,120,30.2,116,31.8z"/>
	<path d="M142.7,48.8c0.4-4.9,0.8-10.6,1.1-17.1c0.3-6.5,0.5-11.4,0.5-14.7c1.8,0,3.5,0,5.1,0c1.5,0,3,0,4.5,0
		c-0.3,2.4-0.6,5.1-0.7,8c1.4-0.2,2.5-0.4,3.3-0.5c0.8-0.1,1.5-0.1,2.3-0.1c2.4,0,4.4,0.4,6.1,1.1c1.7,0.8,3.1,2,4.2,3.8
		c1.1,1.8,1.6,4,1.6,6.6c0,2.6-0.5,5-1.5,7.1c-1,2.2-2.4,3.8-4.1,4.8s-3.7,1.6-5.9,1.6c-0.8,0-1.6-0.1-2.4-0.3s-1.5-0.4-2.1-0.8
		c-0.6-0.3-1.1-0.7-1.6-1.1s-0.9-0.9-1.4-1.5l-0.1,3c-1.7,0-3.1,0-4.2,0C146.4,48.7,144.8,48.8,142.7,48.8z M152.5,31.5
		c-0.1,2.6-0.2,4.2-0.2,4.7c0,1.5,0.1,2.6,0.4,3.5c0.3,0.9,0.7,1.5,1.5,2.1c0.7,0.5,1.5,0.8,2.4,0.8c0.9,0,1.8-0.3,2.5-0.8
		c0.7-0.5,1.2-1.3,1.6-2.3c0.4-1,0.5-2,0.5-3.1c0-1.6-0.4-2.9-1.3-3.9c-0.9-1-2.1-1.5-3.8-1.5C155.1,31,153.9,31.2,152.5,31.5z"/>
	<path d="M200.1,48.8c-1.8,0-3.3,0-4.4,0c-1.5,0-2.9,0-4.4,0l0-3.2c-0.6,0.7-1,1.2-1.4,1.6c-0.4,0.3-0.8,0.7-1.3,0.9
		c-0.5,0.3-1,0.5-1.5,0.7s-1.2,0.3-2,0.5c-0.7,0.1-1.5,0.2-2.3,0.2c-1.2,0-2.4-0.1-3.5-0.4c-1.1-0.3-2.1-0.8-2.9-1.5
		c-0.8-0.7-1.4-1.5-1.7-2.3c-0.3-0.9-0.5-1.9-0.5-3c0-0.3,0-0.7,0.1-1.3l0.4-5.3c0.1-1.9,0.2-4.1,0.3-6.5c0.1-1.4,0.1-2.8,0.1-4.1
		c1.9,0,3.6,0,4.9,0c1.4,0,2.9,0,4.5,0l-0.7,8.9c-0.1,1.4-0.2,2.3-0.2,2.8s0,0.8,0,1c0,1.6,0.3,2.7,1,3.3c0.7,0.6,1.5,0.9,2.4,0.9
		c0.4,0,0.7-0.1,1.1-0.2c0.4-0.1,0.7-0.3,1.1-0.5c0.3-0.2,0.6-0.4,0.8-0.7c0.3-0.3,0.5-0.7,0.7-1.1c0.2-0.5,0.4-1.1,0.6-1.7
		c0.2-0.8,0.3-1.9,0.4-3.1c0.1-0.9,0.1-2.5,0.3-4.8l0.2-4.9c2,0,3.7,0,4.9,0c1.4,0,2.9,0,4.4,0c-0.4,4-0.6,7.7-0.8,11.3
		S200.2,44,200.1,48.8z"/>
	<path d="M205.3,48.8l0.4-5l0.9-17.4l0.3-9.4c2.2,0,3.8,0,4.9,0c1.4,0,3,0,4.7,0l-0.5,7.2l-0.9,17.6l-0.2,7c-1.7,0-3.2,0-4.5,0
		L205.3,48.8z"/>
	<path d="M222.4,31.8c0.3-1.5,0.5-2.6,0.6-3.2c0.1-0.6,0.2-1.5,0.4-2.7c4.5-1,8.3-1.5,11.5-1.5c1.8,0,3.5,0.2,5,0.6s2.7,1.1,3.6,2
		c0.9,0.9,1.3,2.2,1.3,3.9c0,0.9-0.1,2.8-0.3,5.9c-0.2,3-0.4,7-0.5,12c-1.5,0-3,0-4.6,0c-1.5,0-3,0-4.7,0c0.2-1.7,0.4-5.2,0.7-10.6
		c-0.6,0.3-1.1,0.5-1.4,0.6c-0.3,0.1-0.9,0.3-1.8,0.6c-0.8,0.2-1.5,0.5-2,0.6c-0.5,0.2-0.9,0.4-1.2,0.7c-0.3,0.3-0.6,0.5-0.7,0.8
		s-0.2,0.6-0.2,0.9c0,0.5,0.2,1,0.6,1.4s1.1,0.6,2,0.6c0.3,0,0.7,0,1-0.1s0.9-0.2,1.5-0.4c-0.5,1.2-1,2.9-1.6,5.2
		c-1.3,0.2-2.6,0.3-3.8,0.3c-1.9,0-3.5-0.3-4.8-0.8c-1.3-0.5-2.3-1.4-3-2.6c-0.7-1.2-1-2.4-1-3.6c0-0.7,0.1-1.4,0.4-2.1
		c0.3-0.7,0.7-1.4,1.2-2.1s1.2-1.2,1.9-1.7c0.7-0.5,1.7-0.9,3-1.3c1.3-0.4,2.9-0.8,4.8-1.2c0.8-0.2,1.6-0.3,2.2-0.5
		c0.7-0.2,1.2-0.3,1.4-0.5c0.3-0.1,0.5-0.3,0.7-0.5c0.2-0.2,0.3-0.4,0.4-0.6c0.1-0.2,0.1-0.4,0.1-0.6c0-0.6-0.2-1-0.7-1.4
		c-0.5-0.3-1.2-0.5-2.2-0.5C229.6,29.5,226.3,30.2,222.4,31.8z"/>
	<path d="M249.1,48.8l0.7-10.4l0.2-5.9c0-1.1,0-2.2,0-3.3c0-1.1,0-2.5,0-4.2c1.9,0,3.4,0,4.5,0c1.3,0,2.8,0,4.5,0l-0.1,2.6
		c0.6-0.7,1.1-1.2,1.5-1.5c0.4-0.3,0.8-0.6,1.3-0.9c0.5-0.3,1-0.5,1.6-0.6c0.5-0.1,1.1-0.2,1.7-0.2c0.6,0,1.2,0.1,1.9,0.2
		c0,1.7,0.1,3.1,0.1,4.2l0.2,3.6c-0.9-0.2-1.7-0.4-2.4-0.4c-0.9,0-1.7,0.1-2.4,0.4c-0.7,0.3-1.3,0.7-1.8,1.2
		c-0.5,0.6-0.9,1.2-1.2,2.1c-0.3,0.8-0.5,2.1-0.7,3.9c-0.1,1.8-0.2,3.8-0.2,6.1c0,0.8,0,1.8,0.1,3c-1.5,0-3,0-4.6,0
		C252.4,48.7,250.8,48.8,249.1,48.8z"/>
	<path d="M267.7,59.4c-0.5-3.7-0.8-6-1-6.9c1,0.5,1.8,0.8,2.6,1c0.8,0.2,1.4,0.3,1.9,0.3c0.6,0,1.1-0.1,1.6-0.2
		c0.5-0.2,0.9-0.3,1.2-0.6c0.3-0.2,0.6-0.6,1-1c0.3-0.5,0.6-0.9,0.8-1.2c0.2-0.3,0.3-0.8,0.5-1.4L272,36l-3.8-11c2.3,0,3.9,0,4.9,0
		c1.1,0,2.6,0,4.5,0c0.3,1.2,0.8,3.3,1.6,6.2s1.4,5.2,1.7,6.9c0.2,0.9,0.4,2.1,0.6,3.5l0.5-1.9c0.2-0.5,0.3-1.1,0.5-1.7
		c0.2-0.6,0.5-1.4,0.8-2.3l1.5-4.2l2.5-6.5c1.9,0,3.4,0,4.4,0c0.9,0,2.4,0,4.7,0l-4.5,10.2L283.8,54c-0.5,1.1-1,1.9-1.5,2.5
		c-0.5,0.6-0.9,1-1.5,1.5c-0.5,0.4-1,0.7-1.6,1c-0.8,0.4-1.6,0.6-2.6,0.8c-1,0.2-2.1,0.3-3.1,0.3c-0.5,0-1.1,0-1.9-0.1
		c-0.8-0.1-1.4-0.1-1.9-0.2C269.2,59.8,268.5,59.6,267.7,59.4z"/>
	<path d="M309.9,48.8c0.4-3.7,0.7-6.7,0.8-9c0.3-4.2,0.6-8.4,0.7-12.6s0.2-7.6,0.2-10.3c2.1,0,4,0,5.6,0c1.1,0,2.7,0,4.8,0l-0.6,8.4
		l-0.7,13.2l-0.1,3.2c2.7,0,4.4,0.1,5.2,0.1c4.1,0,7.2-0.1,9.3-0.2l-0.5,7c-4.1,0-8,0-11.7,0C318,48.7,313.6,48.8,309.9,48.8z"/>
	<path d="M337.7,48.8c0.2-1.9,0.4-3.5,0.5-4.7c0.1-1.2,0.2-2.8,0.3-4.7s0.2-4,0.3-6.3s0.1-5,0.2-8.1c2,0,3.6,0,4.9,0
		c1.1,0,2.7,0,4.8,0c-0.3,2.9-0.5,5.5-0.6,7.7c-0.1,2.2-0.2,4.6-0.2,7.1c-0.1,4.4-0.1,7.4-0.1,9c-1.8,0-3.4,0-4.8,0
		C341.6,48.7,339.8,48.8,337.7,48.8z M339.2,22c0.1-1.9,0.1-3.3,0.1-4.4c0-0.3,0-0.7,0-1.3c1.9,0,3.5,0,4.7,0c1.8,0,3.3,0,4.6,0
		c0,0.5-0.1,0.9-0.1,1.2l-0.1,2.9c0,0.4,0,0.9,0,1.5c-1.5,0-3,0-4.4,0C342.5,21.9,340.9,21.9,339.2,22z"/>
	<path d="M352.6,48.3c-0.1-0.7-0.1-1.4-0.2-2.2c-0.1-0.8-0.2-1.8-0.3-3.1l-0.2-1.7c1.5,0.6,2.8,1,3.9,1.3c1.1,0.3,2.1,0.4,3,0.4
		c0.8,0,1.4-0.1,1.9-0.2c0.5-0.1,0.8-0.3,1-0.6c0.2-0.3,0.3-0.5,0.3-0.8c0-0.2-0.1-0.5-0.2-0.7s-0.5-0.6-1.1-1
		c-1.3-0.9-2.4-1.8-3.4-2.5c-1-0.8-1.7-1.4-2.2-2c-0.5-0.6-0.9-1.2-1.1-1.9s-0.4-1.4-0.4-2.1c0-1.3,0.4-2.5,1.1-3.6
		c0.7-1.1,1.8-1.9,3.3-2.4s3.2-0.8,5.3-0.8c2.2,0,4.9,0.3,8.3,0.8l0.4,6.5c-1.9-0.7-3.7-1.1-5.4-1.1c-1.2,0-2.1,0.1-2.7,0.4
		c-0.6,0.3-0.8,0.6-0.8,1.2c0,0.2,0,0.3,0.1,0.5c0.1,0.2,0.2,0.3,0.3,0.5c0.2,0.2,0.4,0.3,0.6,0.5c0.2,0.2,0.8,0.6,1.8,1.2
		c0.9,0.7,1.7,1.2,2.2,1.6c0.9,0.7,1.5,1.3,2,1.9s0.8,1.2,1,1.9s0.4,1.4,0.4,2.1c0,1.1-0.3,2.1-0.8,3c-0.5,0.9-1.3,1.7-2.4,2.3
		s-2.3,1.1-3.5,1.3s-2.6,0.4-3.9,0.4c-0.9,0-2-0.1-3.4-0.2C355.9,49,354.4,48.7,352.6,48.3z"/>
	<path d="M393.2,41.9c-0.3,1.3-0.5,2.6-0.7,3.8l-0.5,2.8c-1.5,0.3-2.7,0.6-3.6,0.7c-0.9,0.1-1.7,0.1-2.5,0.1c-1.3,0-2.5-0.1-3.5-0.3
		c-1-0.2-1.9-0.6-2.6-1.2c-0.7-0.6-1.2-1.3-1.4-2.1c-0.2-0.8-0.4-1.6-0.4-2.5c0-0.2,0-0.4,0-0.8c0-0.4,0.1-1.3,0.2-2.6l0.5-8.1H375
		c0.1-1.1,0.1-2.5,0.2-4.2l0.1-2.2h3.9c0.1-0.7,0.2-2.3,0.3-4.7l4-0.8c0.7-0.1,2.3-0.5,4.7-1.1c-0.1,2-0.2,4.2-0.2,6.6h5.3
		c-0.1,3.2-0.2,5.4-0.2,6.4h-5.4l-0.3,5.8c0,0.9,0,1.4,0,1.7c0,0.7,0.1,1.4,0.2,1.9c0.2,0.5,0.5,0.9,0.9,1.1
		c0.4,0.2,0.9,0.3,1.4,0.3c0.4,0,0.8,0,1.2-0.1C391.4,42.4,392.1,42.2,393.2,41.9z"/>
</g>
</svg>
